<?xml version="1.0" encoding="UTF-8"?>
<svg id="Layer_2" data-name="Layer 2" xmlns="http://www.w3.org/2000/svg" xmlns:xlink="http://www.w3.org/1999/xlink" viewBox="0 0 175 40">
  <defs>
    <style>
      .cls-1 {
        fill: #17a759;
        fill-rule: evenodd;
      }

      .cls-2 {
        fill: #131313;
      }

      .cls-3 {
        fill: none;
      }

      .cls-4 {
        clip-path: url(#clippath);
      }
    </style>
    <clipPath id="clippath">
      <rect class="cls-3" width="175" height="40"/>
    </clipPath>
  </defs>
  <g id="Layer_1-2" data-name="Layer 1">
    <g class="cls-4">
      <g>
        <path class="cls-1" d="M38.35.94c1.29-1.24,3.32-1.25,4.62-.04l.12.12.42.44c4.25,4.59,5.83,9.94,5.43,15.17-.41,5.3-2.85,10.3-6.24,14.25-3.39,3.95-7.92,7.05-12.82,8.4-4.96,1.37-10.38.93-15.09-2.41-3.99-2.83-5.51-7.41-5.62-11.86-2.24-1.1-4.6-2.48-7.07-4.15l-.65-.45-.14-.1c-1.4-1.08-1.73-3.07-.7-4.54,1.02-1.46,3.02-1.86,4.52-.93l.14.09.6.41c1.48,1,2.9,1.87,4.24,2.61.87-3.06,2.3-5.99,4.2-8.41,2.84-3.63,7.09-6.53,12.3-6.09,4.69.39,8.16,2.82,9.95,6.26,1.73,3.32,1.76,7.32.24,10.76-1.54,3.51-4.68,6.43-9.19,7.63-3.25.87-7.05.81-11.34-.35h0c-1.71-.46-3.5-1.1-5.37-1.93-.42-.19-.78.1,0,.59,2.21,1.57,5.32,2.9,6.22,3.34.43.69.95,1.26,1.56,1.69,2.78,1.97,6.04,2.34,9.4,1.41,3.42-.94,6.85-3.22,9.51-6.31,2.66-3.09,4.37-6.8,4.65-10.43.27-3.43-.72-6.95-3.69-10.15l-.29-.31-.12-.13c-1.17-1.33-1.09-3.35.2-4.59ZM26.05,10.1c-2.15-.18-4.42.96-6.44,3.54-1.54,1.97-2.7,4.52-3.29,7.15,4.22,1.45,7.37,1.46,9.56.88,2.53-.68,4.05-2.21,4.78-3.86.76-1.73.68-3.61-.05-5.02-.68-1.31-2.05-2.47-4.55-2.68Z"/>
        <path class="cls-2" d="M60.31,33l3.86-23.27h16.23l-.77,4.57h-10.6l-.77,4.77h9.77l-.77,4.58h-9.77l-.77,4.78h10.6l-.77,4.57h-16.23ZM98.3,15.55l-8.9,17.45h-6.36l-3.07-17.45h5.65l1.23,12.02h.18l5.22-12.02h6.06ZM103.49,33.33c-1.84,0-3.36-.38-4.56-1.14-1.19-.76-2.03-1.81-2.51-3.17-.48-1.36-.58-2.93-.28-4.73.3-1.79.91-3.36,1.83-4.7.92-1.35,2.11-2.4,3.55-3.15,1.44-.75,3.07-1.12,4.9-1.12s3.34.38,4.53,1.14c1.2.76,2.04,1.81,2.52,3.17.49,1.36.59,2.94.3,4.74-.3,1.79-.91,3.36-1.84,4.7-.93,1.34-2.11,2.39-3.55,3.14-1.43.75-3.06,1.12-4.89,1.12ZM104.12,29.14c.68,0,1.29-.2,1.83-.61.54-.41,1-.98,1.38-1.72.37-.73.64-1.59.79-2.56.16-.95.17-1.79.05-2.51-.12-.73-.38-1.29-.77-1.69-.39-.41-.93-.61-1.6-.61s-1.3.21-1.84.62c-.55.41-1,.98-1.38,1.72-.36.73-.62,1.58-.78,2.56-.16.95-.18,1.79-.06,2.51.12.72.38,1.28.78,1.69.4.4.94.6,1.6.6ZM122.99,9.73l-3.86,23.27h-5.56l3.86-23.27h5.56ZM129.2,33.33c-1.84,0-3.36-.38-4.56-1.14-1.19-.76-2.03-1.81-2.51-3.17-.48-1.36-.58-2.93-.28-4.73.3-1.79.9-3.36,1.83-4.7.92-1.35,2.11-2.4,3.54-3.15,1.44-.75,3.07-1.12,4.9-1.12s3.35.38,4.53,1.14c1.2.76,2.04,1.81,2.52,3.17.49,1.36.59,2.94.29,4.74-.29,1.79-.91,3.36-1.84,4.7-.93,1.34-2.11,2.39-3.54,3.14-1.43.75-3.06,1.12-4.89,1.12ZM129.82,29.14c.68,0,1.29-.2,1.83-.61.54-.41,1-.98,1.38-1.72.37-.73.64-1.59.79-2.56.16-.95.17-1.79.05-2.51-.12-.73-.38-1.29-.77-1.69-.39-.41-.93-.61-1.6-.61s-1.3.21-1.84.62c-.55.41-1,.98-1.38,1.72-.36.73-.63,1.58-.78,2.56-.16.95-.18,1.79-.06,2.51.12.72.38,1.28.78,1.69.4.4.94.6,1.6.6ZM158.55,15.55l-8.9,17.45h-6.36l-3.07-17.45h5.65l1.23,12.02h.18l5.22-12.02h6.06ZM163.73,33.33c-1.83,0-3.34-.36-4.55-1.08-1.2-.73-2.04-1.76-2.52-3.1-.49-1.35-.57-2.95-.26-4.81.3-1.8.92-3.38,1.85-4.73.94-1.36,2.12-2.41,3.55-3.16,1.42-.76,3.01-1.14,4.76-1.14,1.24,0,2.35.19,3.31.58.96.39,1.76.96,2.39,1.73.63.76,1.06,1.69,1.29,2.8.23,1.11.22,2.38-.02,3.81l-.22,1.39h-15.16l.51-3.23h10c.09-.59.04-1.12-.15-1.58-.19-.46-.5-.82-.92-1.08-.42-.27-.93-.4-1.53-.4s-1.19.14-1.73.43c-.53.28-.98.66-1.35,1.14-.37.48-.61,1.02-.73,1.61l-.6,3.31c-.12.73-.09,1.36.1,1.89.19.52.51.92.98,1.2.46.27,1.06.41,1.78.41.49,0,.94-.06,1.36-.19.42-.14.8-.34,1.14-.6.34-.27.62-.6.83-.99l5.07.15c-.41,1.14-1.04,2.14-1.9,2.99-.86.84-1.9,1.5-3.14,1.97-1.23.46-2.61.69-4.14.69Z"/>
      </g>
    </g>
  </g>
</svg>